<svg width="122" height="91" viewBox="0 0 122 91" fill="none" xmlns="http://www.w3.org/2000/svg">
<path d="M14.993 31.8425C14.993 31.0688 15.1208 30.5544 15.1208 30.0379C15.1208 29.2642 15.1208 28.4905 15.1208 27.7167V26.4286C15.1208 25.1405 14.993 23.8503 14.993 22.5622C14.993 21.2741 14.8651 19.8552 14.8651 18.565V15.3437C14.8651 14.9579 14.8651 14.4413 14.8651 14.0556V11.9937C14.7373 11.0914 14.7373 10.3177 14.7373 9.54397V6.96562C14.7373 6.4491 14.8651 5.93471 14.8651 5.28959C14.8651 5.0324 14.8651 4.77306 14.993 4.51587C14.993 3.99934 15.1208 3.61355 15.2487 3.09702C15.2487 2.71124 15.5044 2.4519 16.0179 2.19471C16.5315 1.93752 17.0429 1.93752 17.6843 1.80892H18.7092C19.0949 1.68032 19.6063 1.55173 19.9899 1.55173C20.5034 1.55173 20.887 1.68032 21.4006 1.68032C22.042 1.80892 22.8112 2.58264 22.8112 3.22776C22.8112 4.00148 22.9391 4.64661 22.9391 5.28959V5.67538C22.9391 5.80397 23.0669 5.93257 23.0669 5.93257C22.9391 7.09208 22.9391 8.12299 22.9391 9.15604C22.9391 9.54183 23.0669 9.92976 23.0669 10.3156C23.0669 10.7013 23.0669 11.0893 22.9391 11.6037C22.9391 12.2488 23.0669 12.8918 22.9391 13.5369V17.1461C22.8112 18.0485 22.8112 19.0794 22.8112 20.1103C22.8112 20.3675 22.6833 20.7554 22.6833 21.1412C22.6833 21.7863 22.5555 22.56 22.6833 23.203C22.6833 23.9767 22.5555 24.6219 22.5555 25.3934C22.5555 25.6506 22.6833 25.91 22.6833 26.2958C22.6833 26.4244 22.5555 26.6815 22.6833 26.8123V27.7146C22.6833 28.4883 22.6833 29.1334 22.6833 29.7764V34.288C22.6833 34.6738 22.5555 35.1903 22.5555 35.5761V37.3807C22.5555 38.2831 22.5555 39.314 22.4276 40.3449C22.4276 41.1186 22.5555 42.0209 22.6833 42.7946C22.9391 43.8256 23.0669 44.7279 23.0669 45.6302V48.5943C23.1948 49.368 23.1948 50.1418 23.1948 50.9133C23.1948 51.0419 23.1948 51.2991 23.0669 51.4299C22.8112 52.075 22.8112 52.718 22.8112 53.3631V54.5226C22.6833 55.2963 22.6833 56.1986 22.8112 56.9724C22.8112 57.101 22.8112 57.101 22.9391 57.101C23.1948 57.7461 23.1948 58.5198 23.1948 59.1628C23.0669 59.2914 23.0669 59.5486 23.0669 59.8079C22.9391 60.0651 22.9391 60.3244 22.8112 60.5816C22.8112 61.0982 22.4255 61.4839 21.7862 61.4839C21.2727 61.4839 20.6313 61.3553 19.992 61.3553H18.0678C17.5543 61.3553 17.0429 61.3553 16.5293 61.2267C16.4015 61.2267 16.2736 61.2267 16.1436 61.0981C15.5022 60.841 15.1187 60.453 14.9908 59.81L14.6073 58.2626C14.6073 58.0054 14.3516 57.7461 14.2216 57.4889C13.9659 57.1031 13.838 56.8438 13.708 56.458L13.3245 53.751C13.1966 52.9773 13.0688 52.2036 12.6831 51.432C12.4274 50.6583 12.2995 49.8846 12.1695 49.1108C12.1695 48.5943 12.0417 48.0799 11.9138 47.5634L11.2724 45.373C11.0167 44.5993 10.8889 43.8256 10.7589 43.0518L10.3753 40.7307C10.2475 40.3449 10.2475 39.957 10.1196 39.5712C9.99175 38.926 9.8639 38.2831 9.8639 37.6379C9.73605 36.8642 9.48034 36.0905 9.35036 35.3168V34.6717C9.2225 34.1551 9.2225 33.7693 8.9668 33.2528C8.9668 32.9956 8.83894 32.7363 8.71109 32.3505C8.58323 31.9647 8.32753 31.5768 8.19754 31.0624L8.06969 30.9338C7.94184 32.0933 7.94184 33.1242 7.94184 34.1573C7.94184 35.0596 7.94184 36.0905 8.06969 36.9928C8.06969 37.8951 8.19754 38.7974 8.19754 39.6998C8.19754 40.3449 8.3254 40.9879 8.3254 41.633C8.3254 42.6639 8.3254 43.6948 8.19754 44.7257C8.06969 46.1446 8.06969 47.5613 8.06969 48.8515C8.06969 49.4966 7.94184 50.1396 7.94184 50.7847C7.81398 51.1705 7.81398 51.5585 7.81398 51.9443C7.81398 52.8466 7.81398 53.6203 7.94184 54.5226C8.06969 55.1677 8.06969 55.8107 8.06969 56.4558C8.06969 56.9724 8.06969 57.4867 8.06969 57.8747V58.5198C7.94184 58.9056 8.06969 59.4221 7.94184 59.9386C7.94184 60.3244 7.81398 60.7124 7.55828 60.9696C7.55828 61.0982 7.30257 61.2267 7.17472 61.2267C6.78902 61.2267 6.53332 61.2267 6.27761 61.0981C5.89405 61.0981 5.50836 61.0982 5.1248 60.9696C4.99694 60.841 4.74124 60.841 4.4834 60.841C4.35554 60.841 4.35554 60.841 4.22769 60.7124C3.71415 60.5838 3.20273 60.5838 2.81917 60.7124C2.30563 60.9696 1.92206 60.9696 1.5385 60.7124C1.2828 60.4552 1.15281 60.1958 1.02496 59.9386C0.641399 59.2935 0.383561 58.5198 0.255707 57.7482C0.127854 57.491 0.127854 57.1031 0.127854 56.8459C0.127854 56.0722 0.255707 55.4271 0.255707 54.6555C0.255707 54.3983 0.255707 54.139 0.255707 53.8818V52.7223C0.255707 52.2057 0.255707 51.6913 0.383561 51.1748C0.383561 50.5297 0.383561 49.756 0.511414 49.113C0.511414 48.3393 0.511414 47.6941 0.511414 47.0512V44.7343C0.383561 43.832 0.383561 43.0583 0.383561 42.1559C0.383561 41.3822 0.511414 40.4799 0.383561 39.7062C0.383561 38.9325 0.383561 38.2873 0.255707 37.6444C0.127854 36.9992 0.255707 36.3563 0.127854 35.8397V35.5825C0.127854 35.1968 0 34.9374 0 34.5516V32.747C0 32.2305 0.127854 31.5875 0.127854 31.071V29.6521C0.127854 28.8784 0.127854 27.9761 0.255707 27.2024C0.255707 26.3 0.255707 25.5263 0.383561 24.624C0.383561 23.9789 0.383561 23.2052 0.511414 22.4336C0.511414 21.2741 0.639268 20.2432 0.639268 19.0815V15.6009C0.639268 14.8271 0.511414 14.182 0.511414 13.539C0.383561 12.3795 0.383561 11.2179 0.383561 10.0584V8.12513C0.383561 7.6086 0.383561 6.96562 0.511414 6.4491V6.06331C0.511414 5.41818 0.511414 4.7752 0.639268 4.13008C0.639268 3.74429 0.639268 3.35636 0.767121 2.84197C1.02283 2.45619 1.28067 2.32545 1.66423 2.19685C2.04992 2.06825 2.43348 1.93966 2.68919 1.93966C3.45844 1.93966 4.09984 1.93966 4.86696 1.81106C5.3805 1.68247 6.01977 1.68247 6.66117 1.93966C7.30257 2.06825 7.81611 2.45619 8.32753 2.84197C8.58323 3.22776 8.71109 3.61569 8.71109 4.13008C8.9668 5.0324 9.09678 6.06331 9.48034 6.96562C9.8639 7.73934 10.1217 8.64166 10.2496 9.41538L10.6332 11.0914C10.6332 11.6079 10.6332 12.1223 10.761 12.5103C10.8889 13.5412 11.1446 14.4435 11.4024 15.4744L11.786 17.5362C11.9138 18.3099 12.0417 18.9551 12.1717 19.7288L12.5552 21.1476C12.6831 21.7928 12.8109 22.5665 12.9409 23.2095L13.7102 26.3022C13.838 27.2045 14.0959 28.2354 14.3516 29.2663C14.3516 29.6521 14.4794 30.04 14.6073 30.5544C14.7351 30.8116 14.7351 31.1996 14.863 31.4567C14.8651 31.5853 14.8651 31.7139 14.993 31.8425Z" fill="white"/>
<path d="M47.6724 6.96562C47.6724 7.61075 47.8002 8.38447 47.8002 9.15604V10.8321C47.6724 11.7344 47.8002 12.6367 47.6724 13.539C47.6724 14.5699 47.6724 15.4723 47.5445 16.5032V17.922C47.5445 18.9529 47.6724 19.9838 47.5445 21.1455C47.4166 21.662 47.4166 22.1764 47.4166 22.8215C47.4166 23.7238 47.4166 24.6262 47.4166 25.3999V28.7519C47.4166 29.1377 47.5445 29.3971 47.5445 29.7829V32.6184C47.5445 33.5207 47.5445 34.5516 47.6724 35.4539C47.6724 35.7111 47.5445 36.0991 47.6724 36.3563C47.6724 37.0014 47.6724 37.6444 47.8002 38.4181C47.9281 39.3204 47.8002 40.3513 47.8002 41.2536C47.9281 42.0274 47.9281 42.8011 47.9281 43.5726V47.5698C47.9281 48.0864 47.9281 48.6008 47.9281 49.2459V50.4054C47.9281 51.1791 47.9281 52.0814 47.9281 52.9837V54.4026C47.9281 54.6598 47.9281 54.7884 47.8002 54.9191C47.6724 55.0477 47.6724 55.0477 47.6724 55.1763C47.6724 55.4335 47.5445 55.5621 47.6724 55.6928C47.6724 56.2094 47.4167 56.4665 47.1588 56.8523L46.006 58.0118C45.8781 58.269 45.6224 58.3976 45.4925 58.657C45.3646 58.9142 45.1089 59.0428 44.8511 59.1735C44.8511 59.3021 44.7232 59.3021 44.7232 59.3021C44.4675 59.6879 44.0818 59.9472 43.6982 60.0758C43.5704 60.2044 43.4425 60.2044 43.3147 60.2044C43.1868 60.333 43.059 60.2044 43.059 60.0758C42.9311 59.9472 42.9311 59.8186 42.6754 59.8186C42.4197 59.8186 42.034 59.9472 41.7783 60.0758C41.5226 60.2044 41.2648 60.2044 41.0091 60.2044C40.2398 60.2044 39.4705 60.0758 38.7034 60.0758C38.1899 59.9472 37.6785 59.9472 37.1649 59.9472C36.7814 59.9472 36.3957 59.9472 36.0121 60.0758C35.7564 60.0758 35.4986 60.2044 35.2429 60.2044C34.6015 60.333 33.9622 60.333 33.3208 60.333C33.1929 60.333 33.0651 60.2044 32.9372 60.2044C32.5537 60.0758 32.168 60.0758 31.7844 60.0758C31.2709 59.9472 30.7595 59.9472 30.2459 59.9472C29.2209 59.9472 28.5796 59.4307 27.9403 58.7877C27.8124 58.6591 27.8124 58.5305 27.6846 58.5305C27.4289 58.2733 27.171 58.014 27.0432 57.7568C26.6596 57.2403 26.1461 56.5973 25.6347 56.0808C25.3789 55.8236 25.249 55.4356 25.249 55.0498C25.3768 54.0189 25.3768 52.988 25.3768 51.9571C25.3768 51.312 25.249 50.7976 25.249 50.2811C25.1211 49.636 25.1211 48.993 25.1211 48.3478V47.0597C24.9933 46.5432 24.9933 45.9002 24.9933 45.3837C24.9933 44.8672 24.9933 44.4814 24.9933 44.0956V43.0647C24.9933 42.5482 24.8654 41.9052 24.8654 41.2601V38.6817C24.8654 36.7485 24.8654 34.8153 24.7375 33.0106C24.7375 31.7225 24.8654 30.4323 24.8654 29.1442C24.8654 28.1133 24.7375 27.2109 24.7375 26.3086C24.8654 25.6635 24.8654 25.0205 24.8654 24.3754C24.9933 23.4731 24.9933 22.5708 25.1211 21.6684C25.1211 21.4112 25.1211 21.1519 25.1211 20.8947V18.4385C25.249 17.5362 25.1211 16.6339 25.1211 15.7316C25.1211 14.9579 25.1211 14.0556 25.1211 13.2818V11.7344C25.249 11.6058 25.249 11.3486 25.249 11.2179C25.3768 10.5727 25.5047 10.0584 25.5047 9.41323C25.6325 9.15604 25.6325 8.76811 25.6325 8.38232C25.6325 8.25373 25.5047 8.25373 25.5047 8.12513C25.249 7.99653 25.249 7.86794 25.119 7.6086C25.119 7.09207 25.119 6.44909 25.119 5.93257V4.51372C25.119 4.25653 25.2468 4.12793 25.3747 3.8686C25.7582 3.35207 26.2718 2.96628 26.6554 2.44976C27.0389 1.93323 27.5525 1.54744 27.936 1.03091C28.1917 0.645124 28.5774 0.514384 28.961 0.257192C29.6024 0.128596 30.2416 0.128596 31.0109 0.128596C32.2916 0.128596 33.7022 0.128596 34.985 0.128596H37.4206C38.062 -1.27749e-08 38.8313 0 39.4705 0C39.7263 0 39.8541 0.128596 39.9841 0.128596C40.7533 0.128596 41.3947 0.128596 42.1619 0.128596H43.059C43.7004 -1.27749e-08 44.0839 0.128596 44.3396 0.645124L45.1089 1.54744C45.3646 1.80463 45.6224 2.19256 45.7503 2.57835L46.5195 3.35207C46.7753 3.60926 47.0331 3.8686 47.1588 4.12579C47.4145 4.25439 47.5445 4.64232 47.5445 4.89951C47.6724 5.54678 47.6724 6.3205 47.6724 6.96562ZM39.9841 51.567C39.9841 50.9219 40.1119 50.1482 39.9841 49.5052V48.0864C39.9841 47.4412 39.9841 46.9269 39.9841 46.2817V43.4462C39.9841 42.1581 39.9841 40.8678 39.8562 39.7083C39.8562 39.1918 39.8562 38.806 39.7284 38.2895C39.7284 37.773 39.6005 37.2586 39.6005 36.7421V34.5516C39.6005 34.0351 39.4727 33.6493 39.4727 33.2635C39.4727 32.747 39.4727 32.104 39.4727 31.4589V29.5257C39.4727 28.8805 39.4727 28.2376 39.4727 27.5924V25.6592C39.4727 24.7569 39.6005 23.726 39.6005 22.8237V19.8552C39.7284 18.9529 39.7284 18.0506 39.7284 17.1483V16.1174C39.7284 15.6008 39.8562 14.9579 39.8562 14.4413C39.8562 13.9248 39.8562 13.4104 39.9841 13.0225C39.9841 12.2488 39.9841 11.4751 39.9841 10.7013V9.41323C40.1119 9.15604 39.9841 8.89671 39.9841 8.63951C37.5485 8.76811 35.115 9.0253 32.6794 8.76811C32.6794 8.89671 32.6794 9.0253 32.6794 9.1539V10.1848C32.5515 10.442 32.5515 10.7013 32.5515 10.9585V13.4083C32.6794 14.182 32.6794 14.9557 32.6794 15.858C32.6794 16.1152 32.6794 16.3746 32.6794 16.6318V19.4673C32.6794 20.3696 32.6794 21.1433 32.6794 22.0457V23.7217C32.6794 24.2382 32.6794 24.8812 32.5515 25.5263V27.7167C32.4237 27.9739 32.5515 28.3619 32.4237 28.6191C32.4237 29.2642 32.2958 30.0379 32.4237 30.6809C32.5515 31.969 32.5515 33.1306 32.6794 34.2901V35.1925C32.8072 35.9662 32.8072 36.7399 32.8072 37.6422C32.9351 38.4159 32.9351 39.1897 32.9351 40.092C32.9351 40.7371 33.0629 41.5108 33.0629 42.1538C33.0629 42.9275 32.9351 43.5726 32.9351 44.2156C32.9351 44.7322 32.9351 45.2465 32.8072 45.6345C32.8072 46.2796 32.9351 46.9226 32.8072 47.5677C32.8072 48.47 32.9351 49.3723 33.0629 50.2746C33.0629 50.9198 33.063 51.5628 32.9351 52.2079H33.3187C34.0879 52.2079 34.8572 52.2079 35.6264 52.3365C36.14 52.5937 36.6514 52.5937 37.2928 52.5937C37.8063 52.5937 38.3177 52.5937 38.7034 52.4651H39.217C39.4727 52.3365 39.7305 52.3365 39.9862 52.2079V51.567H39.9841Z" fill="white"/>
<path d="M60.8732 34.6802C60.7454 34.5516 60.6175 34.5516 60.4897 34.5516C59.9761 34.6802 59.4647 34.423 59.079 34.2944C58.8233 34.2944 58.6933 34.2944 58.4376 34.1659C58.1819 34.1659 57.9241 34.1659 57.6684 34.1659V34.811C57.7962 35.1968 57.7962 35.7133 57.7962 36.0991C57.7962 36.7442 57.6684 37.5179 57.6684 38.1609C57.6684 38.9346 57.5405 39.5798 57.4127 40.3513C57.4127 41.125 57.4127 41.8988 57.4127 42.6703C57.6684 43.4441 57.7984 44.0892 57.6684 44.6036C57.6684 45.5059 57.7962 46.2796 57.6684 47.1819C57.6684 47.5677 57.6684 48.0842 57.6684 48.6008L57.5405 49.5031C57.2848 50.6626 57.4127 51.6935 57.4127 52.7266C57.4127 53.2431 57.5405 53.8861 57.5405 54.4026C57.6684 54.9191 57.6684 55.4335 57.6684 55.95V57.6261C57.6684 58.0119 57.6684 58.3998 57.6684 58.9142V59.3C57.6684 59.5572 57.6684 59.6858 57.5405 59.8165C57.5405 59.9451 57.4127 60.0737 57.2848 60.0737H56.3877C56.2598 60.0737 56.0041 60.0737 55.7463 60.2023C55.3627 60.3309 54.8492 60.3309 54.3356 60.3309C53.8221 60.3309 53.4385 60.2023 52.9271 60.2023C52.2857 60.0737 51.6465 60.0737 51.0051 60.0737H50.7494C50.3658 60.0737 50.108 59.8165 50.108 59.5572C50.108 59.0406 50.108 58.6548 50.108 58.1383V56.5909C50.108 56.0743 49.9801 55.56 49.8523 55.0434C49.8523 54.3983 49.7244 53.7553 49.7244 53.1102C49.5965 51.8221 49.7244 50.6604 49.7244 49.3723C49.7244 48.9866 49.8523 48.5986 49.8523 48.0842C49.9801 47.827 49.9801 47.4391 49.9801 47.0533C49.9801 45.8938 49.9801 44.8629 49.8523 43.7013C49.8523 42.6703 49.8523 41.6394 49.8523 40.6085V39.3204C49.8523 38.6753 49.7244 37.9016 49.7244 37.2586C49.7244 36.8728 49.5965 36.4849 49.5965 36.0991C49.5965 35.5826 49.5965 35.0682 49.5965 34.5516V32.747C49.4687 32.1019 49.4687 31.3282 49.4687 30.6852C49.4687 30.2994 49.4687 29.9115 49.4687 29.3971V27.3353C49.4687 26.4329 49.5965 25.402 49.5965 24.4997C49.7244 23.8546 49.7244 23.2116 49.7244 22.4379V21.1498C49.7244 20.8926 49.7244 20.6333 49.8523 20.2475C49.9801 19.6023 49.9801 18.9594 49.9801 18.1856V14.0556C49.8522 13.539 49.8523 13.0247 49.8523 12.3795C49.8523 11.9937 49.7244 11.6058 49.7244 11.22V9.54398C49.7244 9.15819 49.7244 8.77026 49.7244 8.38447V7.73935C49.8522 6.96563 49.9801 6.32051 49.8523 5.54893C49.8523 5.29174 49.9801 5.16314 49.9801 5.0324V3.22777C49.9801 2.84198 50.108 2.58265 50.2358 2.19686C50.2358 2.06826 50.2358 1.93966 50.3637 1.93966C50.7472 1.55388 51.1329 1.42314 51.5165 1.42314C51.9 1.42314 52.2857 1.42314 52.5414 1.42314H53.5664C54.3356 1.55173 55.1049 1.42314 55.872 1.29454C56.5134 1.16594 57.0248 1.16594 57.5384 1.03735C58.0519 1.03735 58.6912 1.03735 59.2047 1.03735L59.7183 0.908752C60.6154 0.908752 61.5125 0.908752 62.4096 0.908752H64.4595C64.8452 0.908752 65.2288 0.908752 65.4845 0.908752H66.2537C66.8951 0.908752 67.5344 0.908752 68.1758 0.908752H68.5615C68.8172 0.908752 68.945 1.03735 68.945 1.29454L69.0729 1.42314L69.8422 2.19686C70.0979 2.71338 70.4836 2.97058 70.8671 3.48496C71.1228 3.87075 71.5085 4.25868 71.8921 4.64447C72.0199 4.77307 72.0199 4.90166 72.0199 5.161C72.1478 6.06331 72.1478 6.83703 72.0199 7.73935V9.28679C72.0199 10.1891 72.0199 10.9628 72.0199 11.8651V14.8293C72.0199 15.4744 72.1478 16.2481 72.1478 16.8911C72.1478 17.922 72.0199 18.9529 72.0199 19.9838C72.0199 20.629 72.0199 21.1434 72.0199 21.7885V23.4645C72.0199 23.7217 72.1478 23.8503 72.1478 23.981C72.1478 25.012 72.2756 26.0429 72.2756 26.9452C72.2756 27.7189 72.1478 28.364 72.0199 29.007C72.0199 29.3928 72.0199 29.6521 72.0199 30.0379C72.1478 30.4237 72.1478 30.683 71.8921 30.9402C71.7642 31.0688 71.6364 31.1974 71.3785 31.4568L70.6093 32.2305C70.2236 32.6163 69.84 33.0042 69.5843 33.39C69.3286 33.5186 68.9429 33.7758 68.6872 34.0351C68.5594 34.1637 68.4315 34.4209 68.5594 34.6802C68.5594 34.9374 68.5594 35.3254 68.6872 35.5826C68.8151 36.3563 68.8151 37.0014 68.9429 37.773L69.3286 39.9634C69.4565 40.3492 69.4565 40.6085 69.5843 40.9943V41.768C69.7122 42.6703 69.97 43.4441 69.97 44.3464C70.0979 44.9915 70.0979 45.6345 70.2257 46.4082C70.2257 47.3105 70.3536 48.2128 70.6114 48.9866C70.8671 49.7603 70.995 50.6626 71.125 51.4363C71.125 51.8221 71.2528 52.3386 71.3807 52.8552V53.5003C71.5085 54.1454 71.5085 54.7884 71.6364 55.3049C71.7642 56.0786 71.8921 56.8524 72.1499 57.6261C72.2778 58.1426 72.2778 58.657 72.2778 59.1735C72.2778 59.3021 72.2778 59.4307 72.4056 59.5593C72.6613 59.8165 72.6613 60.0758 72.5335 60.333C72.5335 60.5902 72.2778 60.5902 72.0199 60.7188H69.8422C69.4565 60.7188 69.0729 60.8474 68.6893 60.8474C68.0479 60.8474 67.4087 60.8474 66.7673 60.7188L64.9731 60.333C64.7174 60.333 64.4595 60.0758 64.5895 59.8165C64.5895 59.5593 64.4616 59.3 64.4616 59.0428C64.2059 57.8833 63.9481 56.8524 63.8203 55.8193C63.8203 55.0456 63.6924 54.2719 63.5645 53.6289C63.3088 52.7266 63.1789 51.6956 63.051 50.6647C62.9231 50.0196 62.7953 49.3766 62.6653 48.7315L62.2817 46.7983C62.1539 46.1532 62.026 45.3794 62.026 44.7365C61.7703 43.8341 61.6425 42.8032 61.5125 41.9009C61.3846 40.7414 61.2568 39.4512 61.3846 38.2916C61.3846 38.0345 61.3846 37.7751 61.2568 37.5179C61.2568 37.0014 61.1289 36.487 61.1289 35.9705C61.0011 35.5826 61.0011 35.066 60.8732 34.6802ZM57.2848 27.0738C57.6684 26.9452 58.0541 26.9452 58.3098 26.9452C59.5904 26.8166 60.8732 26.8166 62.026 26.9452H63.4367C63.8203 26.9452 64.0781 26.8166 64.4616 26.688V26.5594C64.3338 25.2713 64.4617 23.981 64.7174 22.6929V21.9192C64.7174 21.0169 64.7174 20.1146 64.7174 19.2123V17.1504C64.7174 16.7647 64.5895 16.2481 64.5895 15.7316V11.6058C64.5895 10.7035 64.7174 9.80117 64.7174 8.89886C64.7174 8.89886 64.7174 8.77026 64.5895 8.64167C63.9481 8.77026 63.4367 8.77026 62.9231 8.77026H61.1289C60.2318 8.77026 59.4626 8.77026 58.6933 8.64167C58.3098 8.51307 57.7962 8.51307 57.4127 8.51307H57.1569C57.1569 8.64167 57.1569 8.64167 57.1569 8.64167V11.6058C57.1569 12.3795 57.2848 13.1532 57.2848 14.0556V17.1504C57.2848 18.0528 57.1569 18.8265 57.1569 19.7288V22.3071C57.1569 23.3381 57.0291 24.4997 57.1569 25.5306C57.1569 26.0429 57.1569 26.5594 57.2848 27.0738Z" fill="white"/>
<path d="M89.8363 10.1869C89.5806 10.5727 89.7084 10.9607 89.7084 11.3464C89.7084 11.863 89.7084 12.506 89.7084 13.0225V14.9557C89.7084 15.2129 89.8363 15.4722 89.8363 15.858C89.9641 16.6317 89.9641 17.2769 89.8363 18.0484C89.8363 18.6936 89.8363 19.3365 89.7084 19.9817C89.7084 20.7554 89.5806 21.4005 89.5806 22.1721C89.5806 22.6886 89.5806 23.203 89.5806 23.7195V26.0407C89.4527 27.0716 89.4527 28.1025 89.4527 29.1334V33.9022C89.4527 34.8045 89.4527 35.8354 89.4527 36.7377V38.1566C89.3248 38.6731 89.3248 39.3161 89.3248 39.9612C89.3248 40.7349 89.4527 41.5087 89.4527 42.2802C89.4527 42.9254 89.4527 43.4397 89.4527 44.0849V46.1467C89.4527 47.4348 89.3248 48.725 89.4527 50.0131V50.9155C89.7084 52.075 89.7084 53.2366 89.7084 54.2675V57.2317C89.8363 57.7482 89.8363 58.3912 89.8363 58.9077C89.8363 59.1649 89.8363 59.4242 89.7084 59.6814C89.7084 59.81 89.8363 59.81 89.9641 59.9386C90.2198 60.1958 90.2198 60.5837 90.092 60.9695C89.9641 61.0981 89.7063 61.0981 89.5784 61.0981H88.0399C87.015 61.0981 85.99 61.0981 84.965 61.0981L84.0679 61.2267C83.6844 61.2267 83.2987 61.2267 82.9151 61.0981C82.6594 61.0981 82.4016 60.8409 82.4016 60.5816C82.4016 60.0651 82.5294 59.6793 82.5294 59.2935V57.6175C82.5294 56.7151 82.4016 55.9414 82.4016 55.1677C82.4016 54.5226 82.5294 54.0082 82.5294 53.3631C82.5294 52.8465 82.6573 52.2036 82.6573 51.5584C82.6573 50.7847 82.6573 50.011 82.6573 49.368V46.1445C82.6573 45.7588 82.6573 45.2422 82.6573 44.7257V43.1783C82.6573 42.4045 82.6573 41.5022 82.4016 40.7285V39.8262C82.4016 39.1811 82.4016 38.4073 82.2737 37.7644C82.2737 37.2478 82.1459 36.7335 82.1459 36.2169V34.9288C82.1459 34.0265 82.1459 33.2528 82.1459 32.3505V28.2247C82.1459 27.451 82.1459 26.6772 82.1459 25.9035V24.0989C82.1459 23.4538 82.2737 22.8108 82.1459 22.1657V20.361C82.1459 19.8445 82.1459 19.3301 82.1459 18.8136V17.5255C82.018 17.1397 82.018 16.7518 82.018 16.2374C82.018 15.7209 81.8902 15.2065 81.8902 14.6899C81.8902 14.1734 81.8902 13.659 81.8902 13.1425V11.3379C82.018 10.9521 82.018 10.4356 82.018 10.0498C81.7623 10.0498 81.3766 9.92117 81.1209 9.92117H77.7882C77.2746 9.92117 76.6354 9.79257 76.1218 9.66398C75.7383 9.66398 75.4804 9.66398 75.0969 9.53538C74.8412 9.53538 74.7112 9.53538 74.5833 9.40678C74.4555 9.40678 74.3276 9.27819 74.3276 9.14959C74.1998 8.7638 74.1998 8.37587 74.1998 7.99008C74.3276 7.34496 74.4555 6.83058 74.4555 6.31405C74.5833 5.79752 74.7112 5.41173 74.7112 5.02594C74.839 4.64016 74.839 4.38082 74.9669 4.12363L75.3504 3.09272C75.3504 2.70693 75.4783 2.44759 75.4783 2.0618L75.734 1.67602C75.734 1.67602 75.8619 1.54742 75.9897 1.67602H76.759C77.0147 1.54742 77.4004 1.54742 77.6561 1.54742C78.2975 1.54742 78.8089 1.41882 79.4503 1.54742C79.706 1.54742 79.9638 1.67602 80.2195 1.67602C80.9888 1.80461 81.8859 1.93321 82.6552 1.93321C83.4244 1.93321 84.1937 1.93321 84.8329 1.93321H86.2436C86.3714 1.93321 86.6271 1.80461 86.885 1.80461H89.1906C89.4463 1.80461 89.7041 1.67602 89.9599 1.67602H90.6013C91.1148 1.67602 91.6262 1.54742 92.2676 1.54742C93.0369 1.54742 93.934 1.41882 94.8311 1.41882C95.2168 1.41882 95.4725 1.54742 95.856 1.67602C96.2396 1.93321 96.3696 2.44974 95.9839 2.83552C95.9839 2.83552 95.856 2.83552 95.856 2.96412C95.9839 3.48065 95.9839 3.99503 96.1117 4.51156C96.3674 5.41388 96.4974 6.44479 96.7531 7.3471C96.881 7.6043 96.881 7.99223 97.0088 8.37802L97.1367 8.89454C97.2646 9.15174 97.2646 9.28033 97.1367 9.41107C97.1367 9.66826 97.0088 9.79686 96.751 9.9276C96.1096 10.0562 95.5982 10.0562 94.9568 10.0562C94.0597 9.9276 93.1626 10.0562 92.2655 10.0562C91.7519 10.0562 91.2405 10.0562 90.727 10.1848C90.4777 10.1869 90.0941 10.1869 89.8363 10.1869Z" fill="white"/>
<path d="M106.753 28.7498L106.881 28.6212C107.265 28.2354 107.651 27.9761 108.162 27.8475C108.931 27.4617 109.571 27.0738 110.084 26.5594C110.468 26.3022 110.853 26.0429 111.237 25.9143C112.134 25.5285 112.775 24.8834 113.542 24.4954C113.67 24.3668 113.798 24.2382 114.056 24.2382C114.184 24.1096 114.312 23.981 114.312 23.8524C114.184 23.4667 114.184 23.0787 114.184 22.6929C114.184 22.1764 114.056 21.5334 114.056 21.0169C113.928 19.7288 113.928 18.5671 113.928 17.279C114.056 16.2481 114.184 15.2172 114.184 14.0556C114.184 13.539 114.184 12.8961 114.184 12.2509V10.0584C114.184 9.02746 114.056 7.86795 113.928 6.83489V4.38728C113.8 3.74216 113.8 3.09918 113.8 2.58265C113.8 2.19686 113.8 1.80893 113.928 1.42314C114.056 1.03735 114.312 1.03735 114.697 1.03735C114.825 1.16595 114.825 1.03735 114.953 1.03735C115.467 0.908756 116.106 0.78016 116.619 0.78016H118.158C118.799 0.78016 119.439 0.78016 119.952 1.03735C120.594 1.16595 120.977 1.55388 121.233 2.19686C121.489 2.97058 121.616 3.6157 121.616 4.38728C121.489 5.161 121.616 5.80612 121.616 6.5777C121.616 7.34928 121.744 8.25374 121.744 9.02746C121.744 10.4463 121.872 11.7344 121.872 13.0247C121.872 14.0556 121.872 15.2151 122 16.2481V17.7934C122 18.0506 122 18.4385 121.872 18.6957V20.7576C121.872 21.4027 121.744 22.0457 121.744 22.8194C121.744 23.5931 121.744 24.3668 121.744 25.0098L121.489 27.5882C121.489 28.6191 121.489 29.5214 121.489 30.5523V32.4855C121.489 33.0021 121.616 33.645 121.616 34.1616V34.5474C121.616 34.9331 121.744 35.3211 121.744 35.8355C121.872 36.0927 121.872 36.352 121.744 36.6092C121.744 36.7378 121.744 36.7378 121.616 36.8664C121.489 36.995 121.489 37.1236 121.489 37.2522C121.489 37.8973 121.489 38.4117 121.361 38.9282C121.361 39.8305 121.361 40.7328 121.361 41.6351V42.9232C121.489 43.309 121.489 43.8256 121.489 44.2113C121.489 44.9851 121.489 45.6302 121.616 46.4039C121.616 47.3062 121.616 48.2085 121.616 49.1109V51.8178C121.616 52.3343 121.616 52.8487 121.616 53.3653V53.8818C121.744 54.0104 121.744 54.139 121.744 54.2676L121.616 55.5557C121.616 56.2008 121.744 56.8438 121.616 57.4889C121.616 58.134 121.616 58.777 121.361 59.2935C121.361 59.5507 121.233 59.6793 120.975 59.8101C120.719 60.0672 120.591 60.1958 120.334 60.3266C120.078 60.3266 119.95 60.4552 119.692 60.4552C119.309 60.4552 118.923 60.4552 118.539 60.3266C118.284 60.3266 118.026 60.3266 117.898 60.3266H115.976C115.462 60.198 114.951 59.8101 114.695 59.4243C114.567 59.2957 114.567 59.1671 114.567 59.1671C114.312 58.7813 114.182 58.3934 114.182 57.879V56.5909C114.054 55.6885 114.054 54.7862 114.054 53.8839V52.0793C114.054 50.7912 114.182 49.5009 114.182 48.2128C114.182 47.4391 114.31 46.6654 114.437 45.8917C114.437 45.5059 114.437 45.118 114.437 44.7322V42.411C114.437 41.7659 114.31 41.1229 114.31 40.4778C114.437 39.8327 114.182 39.0589 114.182 38.416C114.054 37.7708 114.054 37.2564 114.054 36.6113C114.054 36.0948 114.054 35.5804 114.054 35.0639V32.8735C114.054 32.8735 114.054 32.7449 114.054 32.6163L113.54 33.0021C113.285 33.2593 112.899 33.3878 112.515 33.6472C112.002 34.033 111.618 34.4209 110.977 34.6781C110.463 34.9353 109.952 35.3232 109.566 35.709C108.925 36.0948 108.413 36.4827 107.9 36.8685C107.516 37.1257 107.131 37.385 106.747 37.6422V38.5446C106.875 38.9303 106.875 39.4469 106.875 39.9634C107.003 40.7371 107.003 41.3822 107.003 42.1538V46.5368C107.003 47.6963 106.875 48.858 106.747 49.8889C106.619 50.2747 106.619 50.6626 106.619 51.0484V53.6267C106.619 54.7862 106.747 55.8172 106.747 56.8502C106.747 56.9788 106.747 56.9788 106.875 56.9788C107.258 57.1074 107.388 57.3646 107.516 57.7525C107.516 58.3976 107.388 58.912 107.261 59.4286C107.261 59.8143 107.133 59.9451 107.005 60.2023C106.749 60.5881 106.364 60.7188 105.98 60.7188C105.211 60.5902 104.441 60.4616 103.674 60.4616C103.419 60.333 103.161 60.333 102.905 60.333C102.392 60.333 101.88 60.333 101.367 60.333H100.597C100.342 60.333 100.212 60.0758 100.084 59.8165C99.8281 59.5593 99.6981 59.3 99.5702 58.9142L99.4424 58.3976C99.4424 57.6239 99.4424 56.9788 99.5702 56.3358C99.6981 55.5621 99.6981 54.917 99.6981 54.1454C99.5702 53.2431 99.4424 52.3408 99.4424 51.4385V48.9887C99.4424 47.5699 99.3145 46.0246 99.3145 44.6057V42.4153C99.3145 41.513 99.3145 40.7393 99.3145 39.8369V37.13C99.3145 36.7442 99.3145 36.2277 99.3145 35.7112V34.9374C99.3145 34.1637 99.1867 33.2614 99.1867 32.4877V29.9093C99.1867 29.7807 99.3145 29.5235 99.3145 29.3928V28.1047C99.3145 27.4596 99.3145 26.8166 99.3145 26.0429V24.1096C99.1867 23.3359 99.1867 22.4336 99.1867 21.6599C99.0588 20.629 99.0588 19.4673 98.931 18.4364C98.8031 18.0506 98.8031 17.6627 98.8031 17.2769C98.8031 16.7604 98.8031 16.246 98.931 15.7295V14.3106C98.931 13.9248 99.0588 13.5369 99.1867 13.1511C99.3145 12.3774 99.3145 11.4751 99.1867 10.7013C99.1867 10.0562 99.1867 9.41325 99.1867 8.76812V7.09209C99.1867 6.57556 99.1867 6.06117 99.1867 5.54465V3.09703C99.1867 2.58051 99.3145 2.19472 99.5702 1.67819C99.5702 1.421 99.8259 1.2924 100.212 1.16166C100.597 0.904469 101.109 0.904469 101.622 0.904469C102.006 0.775873 102.519 0.775873 102.903 0.775873C103.8 0.775873 104.569 0.647277 105.339 0.775873C105.724 0.775873 106.108 1.03307 106.491 1.16166C106.747 1.29026 107.005 1.54745 107.005 1.80679C107.133 2.19257 107.133 2.45191 107.133 2.8377C107.133 3.74001 107.133 4.77093 107.005 5.80184C107.005 6.57556 106.877 7.34928 106.877 8.25159C106.749 9.79903 106.749 11.3443 106.877 12.8918V14.0513C106.877 14.6964 106.877 15.3394 106.749 15.9845C106.749 16.6296 106.621 17.4033 106.621 18.0463C106.621 18.9486 106.621 19.851 106.493 20.6247V22.0435C106.366 22.6887 106.366 23.203 106.366 23.7196C106.366 23.9768 106.493 24.1054 106.493 24.3647C106.366 25.1384 106.493 25.9121 106.621 26.6858C106.621 27.2024 106.621 27.7168 106.749 28.2333V28.7498H106.753Z" fill="white"/>
<path d="M3.40939 87.0403C3.53724 87.0403 3.66297 86.976 3.72689 86.976C3.98047 86.976 4.17012 87.0403 4.4237 87.0403C4.80513 87.0403 5.0587 87.1046 5.44013 87.1046C5.56799 87.1046 5.75763 87.1046 5.94728 87.0403C5.94728 86.976 6.01121 86.976 6.13693 86.9117V86.6545C6.13693 86.0736 6.13693 85.495 6.13693 84.9784V84.3333C6.13693 84.2047 6.13693 84.0761 6.13693 83.8832V83.0452C6.13693 82.5951 6.13693 82.1429 6.13693 81.7571V81.5642C6.07301 81.5642 6.00908 81.5642 5.94728 81.5642H5.69371C5.50406 81.4999 5.31228 81.4356 5.25048 81.2427C5.18656 81.0498 5.18655 80.8569 5.12263 80.6619C5.0587 80.4047 4.99477 80.1454 4.99477 79.8882C4.93085 79.6953 4.86692 79.5667 4.80513 79.5024C4.80513 79.3738 4.7412 79.2452 4.67727 79.1166C4.67727 78.988 4.61335 78.9237 4.61335 78.7951C4.67727 78.7951 4.61335 78.7308 4.54942 78.6022C4.54942 78.5379 4.54942 78.345 4.80299 78.2807H5.18442C5.438 78.2164 5.69158 78.2164 5.94515 78.2164C6.26266 78.2164 6.58016 78.1521 6.89766 78.1521C7.08731 78.1521 7.27909 78.2164 7.46874 78.2807C7.72232 78.345 7.97589 78.4093 8.22947 78.345H8.86448C9.11805 78.345 9.24591 78.5379 9.18198 78.7308C9.18198 78.7951 9.18198 78.7951 9.11805 78.9237C9.11805 78.988 9.11805 78.988 9.11805 79.1166V80.1475C9.11805 80.2761 9.05413 80.4047 9.05413 80.5976C9.05413 80.7262 9.05413 80.9191 9.05413 81.1141V82.2736C9.05413 82.7259 8.92627 83.2402 8.9902 83.7568V85.3042C8.9902 85.4971 8.9902 85.7543 9.05413 86.0136C9.05413 86.3994 9.11805 86.7874 9.11805 87.1088V88.0755C9.11805 88.2041 9.11805 88.2684 9.11805 88.4612L8.9284 88.5898C8.86448 88.7827 8.67483 88.847 8.6109 88.9756C8.42125 89.1042 8.2934 89.2328 8.16768 89.3614C7.97803 89.49 7.9141 89.6186 7.78624 89.7472C7.72232 89.8115 7.5966 89.8758 7.53267 89.8758C7.21517 89.8758 6.89766 89.9401 6.58016 90.0044H6.13693C5.94728 90.0044 5.7555 89.9401 5.62978 89.9401H4.99477C4.7412 89.9401 4.55155 89.8758 4.35977 89.8758H3.47119C3.21761 89.8758 3.02796 89.8758 2.77438 89.9401C2.64653 89.9401 2.45688 89.9401 2.26723 89.9401C2.13938 90.0687 2.01366 90.0687 1.8858 89.9401C1.82188 89.9401 1.69615 89.8115 1.5683 89.6829H1.44045C1.2508 89.49 1.12294 89.2971 0.933293 89.1664C0.805439 89.0378 0.679717 88.9735 0.61579 88.8449C0.61579 88.7806 0.551863 88.7806 0.487936 88.7806C0.424009 88.7806 0.298287 88.7163 0.298287 88.5234C0.23436 88.3948 0.23436 88.2662 0.298287 88.0733V87.4925C0.298287 87.2353 0.23436 86.976 0.23436 86.7188V86.4616C0.170433 86.2044 0.170433 86.0115 0.170433 85.8165C0.170433 85.5593 0.106506 85.2999 0.106506 85.107C0.106506 84.7212 0.106506 84.3333 0.170433 84.0118V83.3667C0.170433 83.1738 0.23436 83.1095 0.23436 82.9809C0.23436 82.6594 0.23436 82.3358 0.23436 82.0143V80.6598C0.23436 80.4026 0.23436 80.274 0.298287 80.1432V78.9837C0.298287 78.6622 0.362214 78.3386 0.362214 78.0171C0.362214 77.4363 0.298287 76.9219 0.362214 76.3411C0.362214 76.0196 0.362214 75.6959 0.362214 75.3102V74.9887C0.362214 74.6029 0.362214 74.2792 0.42614 73.8935C0.42614 73.4412 0.490067 72.9268 0.42614 72.4103C0.42614 72.2174 0.42614 72.0245 0.42614 71.8295V71.1201C0.362214 70.6678 0.298287 70.0892 0.362214 69.5726V68.7346C0.362214 68.606 0.42614 68.4774 0.42614 68.3488C0.490067 68.3488 0.553994 68.3488 0.61579 68.2845C0.677586 68.2202 0.743643 68.0916 0.805439 68.0916C1.05902 67.8344 1.37652 67.5108 1.56617 67.2536C1.63009 67.1893 1.75582 67.0607 1.81974 66.9321L2.07332 66.8678C2.13725 66.9321 2.20117 66.8678 2.2651 66.8678H3.27941C3.66084 66.8678 4.10406 66.8678 4.48549 66.9321C4.61335 66.9321 4.80299 66.9321 4.86692 66.9321H5.1205C5.31015 66.9321 5.56372 66.9321 5.7555 66.8678C5.94515 66.8035 6.13693 66.8035 6.39051 66.8035C6.58016 66.8035 6.70801 66.8035 6.89766 66.8678C7.08731 66.8678 7.27909 66.9321 7.53267 66.9321C7.5966 66.9321 7.66052 66.9321 7.72232 66.9964C7.85017 67.1893 8.03982 67.3179 8.22947 67.4486C8.22947 67.5129 8.35732 67.5772 8.41912 67.6415C8.48305 67.7058 8.60877 67.8344 8.6727 67.8987L8.92627 68.0916C8.9902 68.1559 9.11592 68.3488 9.11592 68.4131C9.052 68.6703 9.052 68.8653 9.052 69.1225C8.98807 69.2511 8.98807 69.444 8.98807 69.5726C8.98807 69.9584 8.98807 70.2177 9.052 70.6035C9.052 70.7964 9.11592 70.9893 9.11592 71.2487V71.5059C9.11592 71.6987 9.11592 71.8916 9.11592 72.151V72.5368C9.11592 72.6654 8.9902 72.7297 8.86235 72.794C8.73449 72.794 8.6727 72.794 8.54484 72.8583C8.41699 72.8583 8.35519 72.8583 8.22734 72.8583H8.09949C7.97163 72.9226 7.78198 72.9868 7.59233 72.9868H7.14911C6.95946 72.9868 6.76768 72.8583 6.57803 72.794C6.45017 72.794 6.38838 72.794 6.38838 72.7297C6.1348 72.6654 6.07088 72.4725 6.07088 72.2796C6.07088 72.0867 6.07088 72.0224 6.1348 71.8938V71.4416C6.1348 71.0558 6.1348 70.6678 6.1348 70.2178V70.0249C5.88123 69.9606 5.62765 69.9606 5.37407 69.9606C5.1205 69.9606 4.80299 69.9606 4.54942 69.9606H4.42156C4.29584 69.8963 4.10406 69.8963 3.97834 69.832C3.85262 69.7034 3.66084 69.7034 3.47119 69.7034H3.34333C3.27941 69.7034 3.27941 69.7034 3.27941 69.832V70.7343C3.27941 71.2508 3.27941 71.7009 3.21548 72.1531V72.9911C3.15155 73.3769 3.21548 73.8292 3.21548 74.2792C3.21548 74.4721 3.21548 74.7293 3.21548 74.9887V76.0839C3.21548 76.4075 3.27941 76.729 3.27941 77.0505C3.34333 77.4363 3.34333 77.8242 3.34333 78.1457V78.8551C3.34333 78.9837 3.34333 79.1788 3.34333 79.3074V80.1454C3.34333 80.4669 3.34333 80.8548 3.34333 81.1763V81.6264C3.34333 81.8193 3.27941 81.9479 3.27941 82.0786V82.2715C3.34333 82.5287 3.34333 82.7237 3.34333 82.9809C3.34333 83.3045 3.40726 83.626 3.40726 83.9475C3.40726 84.3333 3.40726 84.7855 3.40726 85.1713V86.2665C3.40726 86.4594 3.40726 86.6523 3.40726 86.9117V87.0403H3.40939Z" fill="white"/>
<path d="M32.5344 84.3333V84.269C32.4705 84.269 32.4066 84.3333 32.4066 84.3976C32.0891 84.6548 31.8994 84.7834 31.5819 84.8499C31.518 85.0428 31.3283 85.0428 31.2005 85.1713C31.1366 85.1713 31.1366 85.2356 31.1366 85.2999L31.0087 86.138C30.8809 86.3309 30.8809 86.4595 30.8809 86.6545V87.5568V88.9114V89.04V89.3614C30.9448 89.49 30.8809 89.49 30.8809 89.5543C30.8169 89.6186 30.8809 89.6829 30.8169 89.8758C30.8169 89.9401 30.753 89.9401 30.753 89.9401C30.753 89.9401 30.6251 90.0044 30.5633 90.0044C30.2458 90.0687 29.9283 90.0687 29.6748 90.0687H29.1037C28.9119 90.133 28.6605 90.133 28.4687 90.133H28.0255C27.8358 90.133 27.7079 90.0044 27.7079 89.9401V89.6829C27.7719 89.4257 27.7719 89.2307 27.7719 88.9735C27.7719 88.652 27.8358 88.5213 27.8997 88.2641C28.0276 88.0712 28.0276 87.7476 28.0276 87.4904C28.0276 87.4261 28.0276 87.3618 28.0915 87.2332C28.0915 87.1046 28.1554 86.976 28.1554 86.7809C28.1554 86.6523 28.1554 86.4595 28.1554 86.3309V86.138L28.2194 85.8808L28.2833 84.8499C28.2833 84.5927 28.2833 84.3333 28.4111 84.1404V83.4953V82.7216C28.4111 82.5287 28.4751 82.4644 28.4751 82.2051C28.4751 82.0122 28.4751 81.7528 28.539 81.5599C28.6029 81.2384 28.6029 80.9791 28.6669 80.7219C28.6669 80.4647 28.8565 80.2054 28.8565 79.8839C28.9204 79.6267 28.9844 79.3674 28.9844 78.9816V78.5294V77.627C28.9844 77.2413 28.9844 77.0462 29.0483 76.789C29.0483 76.5318 29.1122 76.4032 29.1122 76.2082C29.2379 76.0796 29.3019 75.951 29.3019 75.6917L29.4297 74.6608V74.0156L29.5554 72.5968C29.5554 72.5325 29.6833 72.2753 29.6833 72.1446V71.6923C29.7472 71.2422 29.7472 70.9186 29.8751 70.4685V69.8877L30.0008 69.0497C30.1286 68.7282 30.1926 68.4689 30.2544 68.1474C30.2544 68.0188 30.2544 67.8237 30.3183 67.7616L30.3822 67.3093C30.4461 67.1807 30.6358 67.0522 30.6997 66.9236C30.7637 66.9236 30.8276 66.9236 30.8894 66.8593H31.0172H32.0955H32.349H33.2376C33.2376 66.8593 33.2376 66.9236 33.3015 66.9236C33.3655 67.0522 33.3655 67.1807 33.3655 67.3093C33.4294 67.4379 33.4294 67.6308 33.5551 67.7616C33.6191 67.8902 33.6191 68.1474 33.6191 68.2781L33.7469 69.1804C33.7469 69.309 33.7469 69.4376 33.8108 69.5662C33.8108 69.6948 33.8748 69.952 33.8748 70.147L34.1283 71.1136C34.1923 71.2422 34.1923 71.4994 34.1923 71.6945V72.6611V73.4348C34.3201 73.7563 34.5098 74.0156 34.5737 74.4014C34.6376 74.5943 34.6994 74.8537 34.6994 75.1751L34.7633 76.0132C34.7633 76.0775 34.7633 76.1418 34.8912 76.3347V76.7204V77.4299C34.8912 77.7514 34.8912 78.0107 34.9551 78.2679V78.3965C34.9551 78.6537 34.9551 78.8466 35.0191 79.1059V79.9439C35.083 80.2011 35.083 80.3961 35.1469 80.6533V80.9105L35.2748 81.4271C35.2748 81.6842 35.3387 81.8793 35.3387 82.1365C35.3387 82.458 35.4665 82.8459 35.5305 83.1674C35.5305 83.4246 35.5305 83.7482 35.5944 84.0054C35.5944 84.134 35.7222 84.2626 35.7222 84.3912C35.7222 84.4555 35.7222 84.6484 35.7862 84.777C35.7862 85.0342 35.8501 85.1628 35.8501 85.4221C35.8501 85.5507 35.8501 85.6793 35.914 85.8743C35.914 86.1315 35.978 86.3909 36.1037 86.5838C36.1676 86.9053 36.1676 87.2932 36.1676 87.679V88.1955C36.1676 88.2598 36.1676 88.3241 36.2315 88.3884C36.2315 88.5813 36.2955 88.7099 36.2955 88.9692V89.55C36.2955 89.6143 36.2315 89.6786 36.2315 89.8072C36.1676 89.8072 36.1676 89.8072 36.1676 89.8715C35.978 89.9358 35.914 89.9358 35.8501 89.9358H35.279C35.1512 89.9358 35.0254 89.9358 35.0254 89.8715L34.5822 89.8072C34.2647 89.8715 34.0111 89.8715 33.6297 89.8715C33.5658 89.8715 33.3761 89.8715 33.3122 89.8072C33.2483 89.6786 33.2483 89.6786 33.2483 89.6143V89.55C33.1844 89.2286 33.1204 88.9692 32.9947 88.6477C32.9308 88.3262 32.9308 87.874 32.869 87.5525L32.8051 86.9074L32.7411 86.4552C32.6772 86.198 32.6772 85.9386 32.5515 85.8743V85.4221V84.7127V84.3333H32.5344ZM31.2644 81.5621C31.4562 81.3692 31.5819 81.3692 31.7076 81.2406L31.9612 81.112C32.1509 80.9834 32.4044 80.9191 32.4684 80.8548C32.5323 80.8548 32.5323 80.8548 32.5323 80.7905C32.5323 80.5976 32.4684 80.4047 32.4684 80.2097L32.4044 79.436C32.3405 78.7908 32.3405 78.2764 32.2766 77.6956C32.2766 77.2434 32.2766 76.8576 32.1487 76.4718V75.7624L32.0209 75.1173C32.0209 75.053 32.0209 74.9244 31.957 74.8601V75.1173C31.957 75.2459 31.957 75.3745 31.893 75.4388V76.1482C31.8291 76.4054 31.7012 76.729 31.7012 76.8576C31.7012 77.1791 31.5734 77.6313 31.5734 77.9528V78.9837C31.5734 79.2409 31.5095 79.5003 31.5095 79.8217C31.5095 79.9503 31.4455 80.0789 31.4455 80.3383V80.5955C31.2644 80.8527 31.3283 81.2406 31.2644 81.5621Z" fill="white"/>
<path d="M63.1788 75.8245C62.9253 76.2103 62.7356 76.5983 62.6078 76.984C62.5438 77.3055 62.3542 77.5649 62.2263 77.8864C62.2263 78.015 62.1624 78.1436 62.0985 78.2079C61.9706 78.465 61.9088 78.7887 61.8449 79.0459C61.781 79.2388 61.781 79.3674 61.717 79.6267C61.717 79.8196 61.5274 80.0125 61.3995 80.2718C61.3995 80.3361 61.3356 80.4004 61.2099 80.529C61.146 80.529 61.146 80.5933 61.082 80.5933H60.8285C60.511 80.6576 60.2574 80.5933 60.0677 80.5933C59.9399 80.5933 59.8781 80.5933 59.8142 80.5933V80.4647C59.7502 80.4004 59.7502 80.2718 59.6863 80.2718V80.2075C59.6224 79.9503 59.5606 79.8217 59.4967 79.691V79.4338C59.3688 79.2409 59.307 79.048 59.2431 78.7887C59.1152 78.5315 59.0513 78.2079 58.8616 77.9507C58.7338 77.6292 58.672 77.3698 58.4802 77.1126C58.3524 76.7269 58.1627 76.4032 58.037 76.0174L57.9091 75.5652C57.9091 75.5009 57.9091 75.3723 57.8452 75.308C57.8452 75.6295 57.8452 75.8245 57.8452 76.0817V76.146C57.9091 76.3389 57.9091 76.4032 57.8452 76.5983C57.7813 76.6626 57.7813 76.7269 57.7813 76.7912L57.8452 77.4363C57.9091 77.8221 57.9091 78.21 57.9091 78.5315V78.853C57.9091 79.1102 57.9091 79.4338 57.9091 79.7553V80.4647C57.9091 80.6576 57.9091 80.9148 57.9091 81.2384V82.2693C57.9091 82.6551 57.9091 82.9788 57.9091 83.3003V83.8811C57.9091 84.074 57.9091 84.2026 57.9091 84.3976V85.5571C57.9091 85.9429 57.9091 86.2022 57.9091 86.5237V87.426C57.9091 87.7475 57.8452 87.8761 57.8452 88.0712C57.7813 88.1998 57.7813 88.3284 57.7813 88.3927C57.7813 88.7141 57.7813 89.1021 57.7813 89.3593V89.6808C57.7174 89.8094 57.5916 89.938 57.4638 89.938C57.3359 89.938 57.2741 90.0023 57.2102 90.0023C57.1463 90.0665 57.0184 90.0665 56.8927 90.0665H55.9402C55.7484 90.0665 55.5588 90.0022 55.497 89.938C55.433 89.938 55.3691 89.8737 55.3052 89.8737C55.0516 89.8737 54.9238 89.7451 54.862 89.4879C54.862 89.3593 54.862 89.2307 54.862 89.1021V88.8449C54.798 88.5877 54.798 88.5234 54.798 88.3284C54.798 88.1998 54.798 88.0712 54.862 88.0069V87.6854C54.862 87.4282 54.862 87.1046 54.862 86.976V86.3308C54.862 86.2022 54.862 86.0093 54.9259 85.8143C54.9259 85.6857 54.9259 85.6214 54.9259 85.4928V84.9763C54.9259 84.8477 54.862 84.7191 54.862 84.6548C54.862 84.5262 54.862 84.3312 54.862 84.1383V83.7525C54.798 83.5596 54.798 83.3024 54.798 83.1074C54.798 82.9145 54.798 82.6551 54.798 82.3336V82.0122C54.798 81.755 54.798 81.5621 54.798 81.367V80.4004C54.862 80.2075 54.862 80.0146 54.9259 79.8196V79.3674C54.9259 79.0459 54.9259 78.7222 54.9259 78.3365V77.3698C54.9259 77.0483 54.9259 76.6604 54.9259 76.4032V74.9201C54.9259 74.4679 54.9259 74.0178 54.862 73.5655V73.244C54.862 72.9869 54.862 72.7275 54.862 72.5346V72.0824C54.9259 71.8895 54.9259 71.6302 54.9877 71.4373C54.9877 71.1158 55.0516 70.7921 55.0516 70.4707C55.1155 70.2778 55.1155 70.0849 55.1795 69.8255C55.1795 69.6969 55.1795 69.504 55.1155 69.504C55.0516 69.4397 55.0516 69.3754 55.0516 69.3111C55.0516 69.054 55.0516 68.7946 55.0516 68.6017V67.9566C55.0516 67.7637 55.1795 67.5708 55.2413 67.4401C55.3052 67.3758 55.3691 67.3115 55.4309 67.3115C55.5588 67.2472 55.5588 67.2472 55.6845 67.2472C55.8741 67.1829 56.0659 67.1829 56.3195 67.1186H56.8906C57.0163 67.1186 57.2081 67.1186 57.3338 67.1829C57.4616 67.1829 57.5874 67.2472 57.5874 67.3115C57.7152 67.4401 57.8409 67.5044 57.9049 67.6973C58.0327 67.7616 58.1584 67.8902 58.2224 68.0188C58.2863 68.1474 58.3502 68.276 58.412 68.3402C58.476 68.5974 58.5399 68.726 58.6656 68.9211C58.7935 69.4376 59.047 69.8234 59.1728 70.2756C59.2367 70.5971 59.3006 70.8564 59.3624 71.0493L59.5542 71.6945C59.6181 71.8874 59.6799 72.211 59.8078 72.4682C59.9356 72.7254 60.0613 72.9847 60.251 73.2419C60.3788 73.4991 60.5046 73.8227 60.6324 74.2728C60.6963 74.2728 60.7581 74.2728 60.7581 74.2728L60.9499 73.8206C61.0138 73.692 61.0138 73.5634 61.0756 73.4348L61.1396 73.1133C61.2035 72.8561 61.3292 72.7275 61.3931 72.5325C61.3931 72.5325 61.3931 72.4039 61.4571 72.2753C61.5849 72.0824 61.6467 71.8895 61.7106 71.6302C61.7746 71.5659 61.8385 71.5016 61.8385 71.373L62.156 70.535C62.2199 70.4064 62.2839 70.2135 62.2839 70.0827C62.4117 69.8255 62.4735 69.5662 62.6014 69.3733C62.6014 69.1804 62.6653 68.9211 62.7292 68.7282C62.8571 68.5353 62.9189 68.276 62.9828 68.0188C63.0467 67.8902 63.1085 67.7616 63.1724 67.6973L63.4899 67.3115C63.6178 67.2472 63.7435 67.1829 63.8714 67.1829H64.1889C64.3807 67.1829 64.6321 67.1829 64.9496 67.1186H65.5846C65.7125 67.1829 65.8382 67.3115 65.9021 67.4401L66.0939 67.9566C66.0939 68.1495 66.0939 68.3424 66.1578 68.4731C66.2217 68.666 66.2217 68.7303 66.2217 68.8589C66.2217 68.9875 66.2217 69.1804 66.2217 69.309V70.2756C66.2217 70.5328 66.2857 70.8564 66.2217 71.1136V72.2089C66.2217 72.5946 66.2217 72.9826 66.1578 73.4327C66.1578 73.6255 66.1578 73.8184 66.1578 74.0778V74.7229C66.2217 75.1751 66.2217 75.6252 66.2857 76.0774V76.7869C66.2857 76.9798 66.3496 77.1727 66.3496 77.3034V77.8842C66.3496 78.27 66.3496 78.7222 66.3496 79.0437V79.946C66.3496 80.2032 66.3496 80.5269 66.3496 80.7198V81.0413C66.3496 81.1698 66.3496 81.3627 66.3496 81.427V82.2651C66.3496 82.458 66.4135 82.6508 66.4135 82.9745C66.4135 82.9745 66.4135 83.1674 66.4135 83.2981V84.2004C66.4775 84.5219 66.4775 84.717 66.4775 85.0384C66.4135 85.3621 66.4135 85.6193 66.4135 85.9408V86.5216C66.4135 86.7788 66.4135 86.9738 66.4135 87.231V87.7475C66.4775 87.7475 66.4775 87.8118 66.4775 87.8118V88.6499C66.5414 88.907 66.4775 89.2307 66.4135 89.3593C66.4135 89.4236 66.4135 89.4879 66.4135 89.5522V89.8094C66.3496 89.8737 66.2857 89.938 66.1599 90.0023C65.8424 90.1308 65.5249 90.1308 65.2074 90.1308C65.0796 90.1308 64.9539 90.1308 64.826 90.0665L64.191 90.0023C63.8735 90.0023 63.556 89.8737 63.4303 89.6165L63.2406 89.2307C63.2406 89.1021 63.2406 88.9735 63.1767 88.9092V88.3284C63.2406 88.0712 63.3046 87.8761 63.3664 87.7475V86.9738C63.3664 86.8452 63.3663 86.5216 63.3024 86.2644C63.2385 85.9429 63.2385 85.4907 63.2385 85.1692C63.2385 84.912 63.2385 84.6527 63.2385 84.4598V82.9766C63.2385 82.3315 63.2385 81.7528 63.2385 81.2363V80.5912C63.2385 80.3983 63.3024 80.2054 63.3024 79.946V79.0437C63.2385 78.7865 63.3024 78.4629 63.2385 78.1414C63.2385 77.6913 63.2385 77.3677 63.1746 76.9819C63.1746 76.6604 63.2385 76.2082 63.2385 75.8224H63.1788V75.8245Z" fill="white"/>
<path d="M88.2403 76.4697C88.3042 76.4697 88.3681 76.534 88.4939 76.534C88.8114 76.6626 89.1907 76.5983 89.4464 76.5983C89.636 76.534 89.8278 76.4697 89.9535 76.4697C90.0814 76.4054 90.1432 76.4054 90.271 76.4054C90.4607 76.4697 90.6525 76.5983 90.7782 76.7911C90.906 77.0483 90.9678 77.3077 90.9678 77.5649C90.9678 77.7578 91.0318 77.8864 91.0318 78.0171C91.0318 78.3386 91.0318 78.6622 90.9678 78.9194C90.9678 79.1123 91.0318 79.1766 90.9678 79.3052C90.9039 79.3695 90.9039 79.4981 90.7782 79.5624C90.7782 79.6267 90.6503 79.691 90.5246 79.7553C90.3968 79.8839 90.1432 79.8839 89.9535 79.8839H89.636C89.5721 79.8839 89.5082 79.8839 89.4464 79.8839H89.1289C89.001 79.8839 88.8753 79.8839 88.7474 79.8839H88.366C88.1764 79.8839 87.9846 79.9482 87.7949 79.8839C87.7949 79.8839 87.731 79.8839 87.731 79.9482C87.731 80.334 87.731 80.7219 87.7949 81.1077V82.0743C87.7949 82.2672 87.7949 82.5265 87.7949 82.7837V82.9766C87.7949 83.5574 87.7949 84.2004 87.7949 84.7812V85.6836C87.7949 85.8765 87.7949 86.0694 87.7949 86.3287V86.5216C87.9228 86.5216 88.0485 86.5216 88.1764 86.5216H88.8732C89.1267 86.5216 89.3803 86.5859 89.6339 86.6502C89.8236 86.6502 90.0153 86.7145 90.205 86.7145C90.4586 86.6502 90.7121 86.6502 90.9657 86.6502H91.4132C91.6668 86.5859 91.9204 86.5859 92.1739 86.5859C92.3636 86.5859 92.5554 86.5216 92.745 86.5216C92.9986 86.5216 93.2522 86.5859 93.5057 86.6502C93.6315 86.6502 93.6954 86.7145 93.8232 86.9074C93.949 87.1003 94.0129 87.3596 93.949 87.6168C93.949 87.7454 93.949 87.874 93.885 88.0026C93.885 88.1312 93.885 88.3241 93.8211 88.5191C93.7572 88.7763 93.6933 89.0356 93.5036 89.2928L93.3118 89.55C93.2479 89.6786 93.0583 89.6786 92.9943 89.7429C92.7407 89.8715 92.5511 89.9358 92.4232 89.9358C92.2954 90.0001 92.2336 90.0001 92.1057 90.0001C91.914 90.0001 91.6625 90.0644 91.4707 90.1287C91.2172 90.1287 91.0275 90.1287 90.7718 90.1287H89.6296C89.3121 90.0644 88.9946 90.0644 88.7411 90.0001H88.2978C88.1721 90.0001 88.0443 90.0001 87.8546 90.0001L87.7907 90.0644C87.6628 90.1287 87.601 90.1287 87.4732 90.1287C87.2196 90.0644 86.966 90.0001 86.7124 90.0001H86.4589C86.2671 90.0001 86.0774 89.9358 85.9517 89.8715C85.8239 89.8715 85.7621 89.8072 85.7621 89.6786C85.6981 89.6786 85.6342 89.55 85.5724 89.4857C85.3828 89.4214 85.3188 89.2285 85.2549 89.0999C85.1271 88.8427 85.1271 88.5191 85.1271 88.3262C85.1271 87.874 85.1271 87.4239 85.1271 86.9717V86.5859C85.1271 86.2644 85.0631 86.0051 85.0631 85.8122C84.9992 85.3621 84.9992 84.9099 85.1271 84.4576C85.191 84.2004 85.191 83.8125 85.191 83.491V82.3315C85.191 82.2029 85.191 82.1386 85.191 82.01V81.4935C85.191 81.2363 85.1271 80.977 85.1271 80.7841V79.6245C85.1271 79.4317 85.1271 79.2388 85.1271 79.0437V78.0771C85.1271 77.8199 85.1271 77.5606 85.1271 77.3677V76.8512C85.191 76.6583 85.191 76.4011 85.191 76.206V75.6252C85.191 75.0444 85.191 74.53 85.2549 73.8849V73.2398C85.2549 72.9183 85.191 72.6589 85.191 72.4017C85.191 72.3374 85.191 72.2731 85.191 72.2731V71.628C85.191 71.3708 85.1271 71.1115 85.1271 70.8543C85.1271 70.6614 85.1271 70.4685 85.0631 70.2735C84.9992 70.0806 84.9992 69.8234 84.9992 69.5641C84.9992 69.3069 84.9992 69.114 85.0631 68.8546C85.1271 68.5974 85.1271 68.4024 85.1889 68.1452V67.693C85.1889 67.6287 85.2528 67.5001 85.3167 67.3715C85.3167 67.2429 85.3806 67.1143 85.4446 67.05L85.5724 66.8571C85.6363 66.7928 85.7003 66.7928 85.7621 66.7928H85.9517C86.0156 66.7285 86.0156 66.7285 86.1435 66.7285H86.461C86.9682 66.7285 87.4135 66.7285 87.9207 66.7285H88.8092C88.935 66.7285 89.1268 66.7928 89.1907 66.7928C89.5082 66.8571 89.7618 66.8571 90.0153 66.7928H90.7143C90.9678 66.7285 91.2214 66.7285 91.475 66.7285C91.6646 66.7285 91.7925 66.6642 91.8564 66.6642C92.11 66.5999 92.2996 66.5999 92.5554 66.5999C92.745 66.6642 92.9986 66.7928 93.1904 66.9214C93.3161 67.05 93.4439 67.2429 93.4439 67.5022C93.4439 67.6308 93.4439 67.7594 93.5079 67.9545C93.5718 68.2117 93.5718 68.471 93.5079 68.7925C93.5079 68.9854 93.4439 69.1783 93.3161 69.3733C93.1904 69.5662 92.9986 69.6948 92.745 69.6948C92.5554 69.6948 92.3636 69.6948 92.1739 69.5662C92.0461 69.5662 91.9204 69.5662 91.7925 69.5662H91.2214C90.84 69.5662 90.5246 69.5662 90.2689 69.5662H89.1907C89.001 69.5662 88.8092 69.5662 88.5557 69.5662H88.2382C88.2382 69.5019 88.2382 69.5662 88.1742 69.5662C88.1742 69.6305 88.1742 69.6948 88.2382 69.7591C88.2382 70.0163 88.2382 70.3399 88.2382 70.5971V71.4994C88.3021 71.8852 88.3021 72.2731 88.3021 72.5946C88.366 72.7875 88.366 72.9804 88.366 73.1755C88.366 73.5612 88.366 73.8849 88.3021 74.335L88.1124 75.3016C88.0485 75.4945 88.0485 75.7517 88.0485 76.011C88.0485 76.2039 87.9846 76.3325 87.9846 76.4611H88.2403V76.4697Z" fill="white"/>
<path d="M115.588 86.6544C115.842 86.6544 116.095 86.5901 116.349 86.5901C116.666 86.5901 116.984 86.5901 117.301 86.5901H118.126C118.126 86.5901 118.126 86.5901 118.19 86.5901V86.0736C118.19 85.8164 118.19 85.5571 118.19 85.2999V84.2047C118.19 83.9475 118.126 83.6882 118.19 83.3667C118.19 82.9809 118.126 82.593 118.126 82.2072V81.95C118.126 81.6285 118.126 81.3692 118.126 81.0477V80.3382C118.062 80.2739 117.998 80.2739 117.936 80.2739C117.683 80.1453 117.429 80.081 117.112 79.9524C117.048 79.8881 116.922 79.8882 116.794 79.8239C116.605 79.8239 116.477 79.7596 116.351 79.6953C116.161 79.631 116.033 79.5667 115.844 79.5024L115.083 79.3095C115.019 79.2452 114.957 79.2452 114.83 79.1809C114.64 79.1166 114.448 79.0523 114.322 78.9237C114.005 78.7951 113.687 78.6665 113.498 78.4736C113.434 78.4093 113.37 78.4093 113.308 78.4093L113.118 78.2807C113.054 78.0235 112.865 77.8285 112.737 77.5713L112.547 77.1212C112.483 76.9926 112.483 76.9283 112.611 76.7976C112.611 76.7333 112.611 76.669 112.611 76.669V75.8309C112.611 75.4452 112.611 75.0572 112.675 74.6714C112.675 74.3499 112.739 74.0906 112.739 73.7691C112.739 73.4476 112.803 73.124 112.803 72.8025C112.803 72.6096 112.803 72.4167 112.803 72.1574V71.1908C112.803 70.9336 112.739 70.7385 112.675 70.4813C112.611 70.1599 112.611 69.8362 112.611 69.5147V68.4838C112.611 68.3552 112.675 68.2909 112.801 68.2266C112.801 68.1623 112.929 68.098 112.991 68.0337C113.118 67.9051 113.244 67.7765 113.434 67.6479C113.562 67.4551 113.751 67.1957 113.941 67.0671L114.069 66.9385C114.133 66.8742 114.197 66.8742 114.258 66.8742C114.322 66.8742 114.386 66.8742 114.448 66.8099H115.147C115.528 66.8742 115.908 67.0028 116.353 66.9385H117.052C117.242 66.8742 117.433 66.8742 117.623 66.8742C117.749 66.8742 117.941 66.8742 118.066 66.8742L118.701 66.8099C118.827 66.8099 119.019 66.8099 119.272 66.7456C119.4 66.7456 119.526 66.7456 119.716 66.7456L119.78 66.8099C120.097 67.0671 120.351 67.3908 120.604 67.6479C120.604 67.7765 120.668 67.8408 120.732 67.9051C120.858 67.9694 121.05 68.098 121.114 68.2909C121.177 68.3552 121.177 68.3552 121.177 68.4838C121.241 68.741 121.241 69.0004 121.241 69.2575C121.177 69.4504 121.241 69.7098 121.241 69.9027V70.4835C121.241 70.6121 121.241 70.7407 121.241 70.805V71.643C121.241 71.7716 121.305 71.9645 121.305 72.1595L121.369 72.4167C121.369 72.6096 121.241 72.6739 121.116 72.7382C120.926 72.7382 120.734 72.7382 120.545 72.6739C120.417 72.6739 120.355 72.7382 120.163 72.7382C120.163 72.8025 120.099 72.8025 120.035 72.8025C119.846 72.8025 119.654 72.7382 119.464 72.7382C119.275 72.7382 119.147 72.6739 119.021 72.6739H118.578C118.578 72.6739 118.514 72.7382 118.45 72.7382C118.386 72.8025 118.26 72.6739 118.196 72.6096C118.196 72.6096 118.196 72.5453 118.196 72.481V72.0288C118.196 71.9645 118.132 71.7716 118.132 71.7073V71.1908C118.132 70.805 118.132 70.4813 118.132 70.1599V69.9027C117.943 69.967 117.751 69.9027 117.561 69.9027C117.308 69.8384 117.118 69.8384 116.865 69.8384H116.675C116.483 69.8384 116.293 69.8384 116.104 69.9027H115.722C115.722 69.9027 115.658 69.9027 115.597 69.9027V70.5478C115.597 70.7407 115.597 70.9336 115.533 71.1286V71.5808C115.533 71.7094 115.533 71.838 115.597 71.9666V72.6761C115.597 72.9333 115.661 73.1926 115.661 73.3855V74.4164C115.661 74.7379 115.661 75.1258 115.661 75.4473V76.0924C115.661 76.1567 115.661 76.221 115.724 76.221C115.852 76.221 115.978 76.2853 116.168 76.3496C116.296 76.3496 116.357 76.4139 116.549 76.4782C116.867 76.6068 117.246 76.7354 117.563 76.9304C117.691 76.9947 117.881 76.9947 118.071 77.059C118.324 77.1233 118.578 77.2519 118.831 77.3805L119.275 77.6377C119.338 77.702 119.338 77.702 119.402 77.702L119.784 77.8949C119.912 78.0235 120.101 78.0235 120.291 78.1521C120.355 78.1521 120.355 78.2164 120.417 78.2807C120.67 78.6022 120.798 78.9258 120.988 79.183C121.052 79.3116 121.052 79.3759 121.052 79.4402C121.116 79.5688 121.052 79.6331 121.052 79.7617V80.5354C121.052 80.7283 121.052 80.9855 121.052 81.1805V81.502C121.052 81.8235 121.052 82.0829 121.052 82.4043V83.3067C121.052 83.4353 121.052 83.4996 121.052 83.6282V84.0139C121.052 84.1425 121.052 84.1425 121.052 84.2711V85.69C121.052 85.69 121.052 85.7543 121.052 85.8186V86.0758C121.052 86.2044 121.052 86.3973 121.052 86.5923V87.4946C121.116 87.8161 121.116 88.1397 121.116 88.3969C121.116 88.5255 121.052 88.6541 120.988 88.7184C120.924 88.7827 120.86 88.847 120.798 88.847C120.734 89.0399 120.608 89.1042 120.417 89.2328C120.291 89.3614 120.163 89.5543 119.973 89.685C119.91 89.7493 119.846 89.8136 119.72 89.8779C119.72 89.9422 119.592 90.0065 119.466 89.9422C119.466 89.8779 119.466 89.8779 119.402 89.8779C119.213 89.8136 119.021 89.8136 118.831 89.8136C118.45 89.7493 118.071 89.8779 117.689 89.8779C117.308 89.8779 117.054 89.9422 116.675 90.0065H116.168C115.786 90.0065 115.471 90.0065 115.089 89.9422C114.964 89.8779 114.772 89.9422 114.582 89.8779C114.393 89.8779 114.265 89.8779 114.139 89.8136C114.075 89.8136 114.011 89.7493 113.949 89.7493C113.822 89.6207 113.696 89.4921 113.632 89.3635L113.251 89.1063C113.059 88.8492 112.807 88.6541 112.616 88.3969V88.2683V87.4946C112.616 87.2374 112.616 86.9138 112.616 86.6566V86.0115C112.616 85.9472 112.616 85.9472 112.552 85.8829C112.552 85.8186 112.488 85.7543 112.488 85.69C112.552 85.4971 112.552 85.2377 112.552 85.0449C112.552 84.852 112.552 84.7877 112.552 84.5948V84.2733C112.552 84.1447 112.616 84.0161 112.805 84.0161C112.995 83.9518 113.187 83.9518 113.376 83.8875C113.504 83.8875 113.63 83.9518 113.694 83.9518C114.011 83.8875 114.329 83.9518 114.582 84.0161H115.153C115.281 84.0161 115.407 84.0804 115.471 84.2733C115.471 84.6591 115.535 85.047 115.535 85.4971C115.535 85.7543 115.535 86.0779 115.535 86.3994L115.588 86.6544Z" fill="white"/>
</svg>
