<svg width="50" height="50" viewBox="0 0 50 50" fill="none" xmlns="http://www.w3.org/2000/svg">
<g clip-path="url(#clip0)">
<path d="M48.4175 45.255L45 35H41.25L43.3325 45H6.66747L8.74996 35H4.99997L1.57997 45.255C0.712465 47.865 2.24997 50 4.99997 50H45C47.75 50 49.2875 47.865 48.4175 45.255ZM37.5 12.5C37.5 9.18479 36.183 6.00537 33.8388 3.66117C31.4946 1.31696 28.3152 0 25 0C21.6848 0 18.5053 1.31696 16.1611 3.66117C13.8169 6.00537 12.5 9.18479 12.5 12.5C12.5 24.4375 25 37.5 25 37.5C25 37.5 37.5 24.4375 37.5 12.5ZM18.25 12.65C18.25 8.9225 21.27 5.9025 25 5.9025C26.7898 5.9025 28.5064 6.61353 29.7721 7.87916C31.0377 9.1448 31.7487 10.8614 31.7487 12.6513C31.7487 14.4411 31.0377 16.1577 29.7721 17.4233C28.5064 18.689 26.7898 19.4 25 19.4C23.2098 19.4 21.4929 18.6888 20.227 17.423C18.9611 16.1571 18.25 14.4402 18.25 12.65V12.65Z" fill="white"/>
</g>
<defs>
<clipPath id="clip0">
<rect width="50" height="50" fill="white"/>
</clipPath>
</defs>
</svg>
